<svg xmlns="http://www.w3.org/2000/svg" x="0px" y="0px" width="80" height="80" viewBox="0 0 80 80">
<path fill="#2463EB" d="M74.01,62.5c-1.795,0-3.517-0.852-4.607-2.277L57.807,45.06L46.211,60.223 c-1.09,1.426-2.812,2.277-4.607,2.277h-3.428L54.66,40.944L38.261,19.5h3.428c1.795,0,3.518,0.851,4.607,2.276l11.51,15.052 l11.51-15.052c1.09-1.426,2.812-2.276,4.607-2.276h3.428L60.954,40.944L77.438,62.5H74.01z"></path><path fill="#2463EB" d="M20,64.5c-10.201,0-18.5-8.594-18.5-19.156v-8.689C1.5,26.093,9.799,17.5,20,17.5 s18.5,8.593,18.5,19.154v7.845L6.5,44.5v0.844C6.5,53.15,12.556,59.5,20,59.5c4.111,0,8.093-2.067,10.653-5.529 c1.161-1.571,2.86-2.472,4.661-2.472h1.711l0.204,0.204l0.134,0.268l-0.075,0.203C34.571,59.547,27.624,64.5,20,64.5z M33.5,39.5 v-2.846C33.5,28.85,27.444,22.5,20,22.5S6.5,28.85,6.5,36.655V39.5H33.5z"></path>
</svg>